<svg fill="none" xmlns="http://www.w3.org/2000/svg">
    <symbol id="search-34" fill="none">
        <path d="M29.75 29.75L22.388 22.388M22.388 22.388C24.3108 20.4653 25.5 17.809 25.5 14.875C25.5 9.00697 20.743 4.25 14.875 4.25C9.00697 4.25 4.25 9.00697 4.25 14.875C4.25 20.743 9.00697 25.5 14.875 25.5C17.809 25.5 20.4653 24.3108 22.388 22.388Z" stroke="currentColor" stroke-width="2" stroke-linecap="round" stroke-linejoin="round"/>
    </symbol>
    <symbol id="notification-34" fill="none">
        <path d="M21.0472 24.1991C23.7312 23.8807 26.3193 23.2497 28.7741 22.3435C26.7386 20.0841 25.4997 17.093 25.4997 13.8125V12.8197C25.4999 12.7965 25.5 12.7732 25.5 12.75C25.5 8.05558 21.6944 4.25 17 4.25C12.3056 4.25 8.5 8.05558 8.5 12.75L8.49972 13.8125C8.49972 17.093 7.2608 20.0841 5.22534 22.3435C7.68032 23.2498 10.2686 23.8808 12.9528 24.1992M21.0472 24.1991C19.72 24.3565 18.3693 24.4375 16.9997 24.4375C15.6303 24.4375 14.2798 24.3565 12.9528 24.1992M21.0472 24.1991C21.1789 24.6091 21.25 25.0462 21.25 25.5C21.25 27.8472 19.3472 29.75 17 29.75C14.6528 29.75 12.75 27.8472 12.75 25.5C12.75 25.0463 12.8211 24.6091 12.9528 24.1992" stroke="currentColor" stroke-width="2" stroke-linecap="round" stroke-linejoin="round"/>
    </symbol>
    <symbol id="close-34">
        <path d="M28 7L8 27M8 7L28 27" stroke="currentColor" stroke-width="2" stroke-linecap="round" stroke-linejoin="round"/>
    </symbol>

    <symbol id="search-24" fill="none">
        <path d="M21 21L15.8033 15.8033M15.8033 15.8033C17.1605 14.4461 18 12.5711 18 10.5C18 6.35786 14.6421 3 10.5 3C6.35786 3 3 6.35786 3 10.5C3 14.6421 6.35786 18 10.5 18C12.5711 18 14.4461 17.1605 15.8033 15.8033Z" stroke="currentColor" stroke-width="1.5" stroke-linecap="round" stroke-linejoin="round"/>
    </symbol>
    <symbol id="notification-24" fill="none">
    <path d="M14.8569 17.0817C16.7514 16.857 18.5783 16.4116 20.3111 15.7719C18.8743 14.177 17.9998 12.0656 17.9998 9.75V9.04919C17.9999 9.03281 18 9.01641 18 9C18 5.68629 15.3137 3 12 3C8.68629 3 6 5.68629 6 9L5.9998 9.75C5.9998 12.0656 5.12527 14.177 3.68848 15.7719C5.4214 16.4116 7.24843 16.857 9.14314 17.0818M14.8569 17.0817C13.92 17.1928 12.9666 17.25 11.9998 17.25C11.0332 17.25 10.0799 17.1929 9.14314 17.0818M14.8569 17.0817C14.9498 17.3711 15 17.6797 15 18C15 19.6569 13.6569 21 12 21C10.3431 21 9 19.6569 9 18C9 17.6797 9.05019 17.3712 9.14314 17.0818" stroke="currentColor" stroke-width="1.5" stroke-linecap="round" stroke-linejoin="round"/>
    </symbol>

    <symbol id="close-24">
        <path d="M19 5L5 19M5 5L19 19" stroke="currentColor" stroke-width="2" stroke-linecap="round" stroke-linejoin="round"/>
    </symbol>

    <symbol id="burger">
        <path fill-rule="evenodd" clip-rule="evenodd" d="M3 6.75C3 6.33579 3.33579 6 3.75 6H20.25C20.6642 6 21 6.33579 21 6.75C21 7.16421 20.6642 7.5 20.25 7.5H3.75C3.33579 7.5 3 7.16421 3 6.75ZM3 12C3 11.5858 3.33579 11.25 3.75 11.25H20.25C20.6642 11.25 21 11.5858 21 12C21 12.4142 20.6642 12.75 20.25 12.75H3.75C3.33579 12.75 3 12.4142 3 12ZM11.25 17.25C11.25 16.8358 11.5858 16.5 12 16.5H20.25C20.6642 16.5 21 16.8358 21 17.25C21 17.6642 20.6642 18 20.25 18H12C11.5858 18 11.25 17.6642 11.25 17.25Z" fill="currentColor"/>
    </symbol>
    <symbol id="play" heigth="28" width="28">
        <path fill-rule="evenodd" clip-rule="evenodd" d="M5.75 6.59479C5.75 4.93097 7.53383 3.87624 8.9917 4.67807L22.4557 12.0833C23.9668 12.9144 23.9668 15.0856 22.4557 15.9167L8.9917 23.3219C7.53383 24.1238 5.75 23.069 5.75 21.4052V6.59479Z" fill="currentColor"/>
    </symbol>
    <symbol id="arrow-right-28">
        <path d="M5.62476 15L24.3748 15M24.3748 15L15.9373 6.5625M24.3748 15L15.9373 23.4375" stroke="currentColor" stroke-width="2" stroke-linecap="round" stroke-linejoin="round"/>
    </symbol>
    <symbol id="arrow-right-24">
        <path d="M4.5 12L19.5 12M19.5 12L12.75 5.25M19.5 12L12.75 18.75" stroke="currentColor" stroke-width="1.5" stroke-linecap="round" stroke-linejoin="round"/>
    </symbol>
    <symbol id="arrow-right-20">
        <path d="M4.5498 10.5L17.0498 10.5M17.0498 10.5L11.4248 4.875M17.0498 10.5L11.4248 16.125" stroke="currentColor" stroke-linecap="round" stroke-linejoin="round"/>
    </symbol>
    
    <symbol id="plus-30">
        <path d="M23.75 14.25H16.25V6.75C16.25 6.41848 16.1183 6.10054 15.8839 5.86612C15.6495 5.6317 15.3315 5.5 15 5.5C14.6685 5.5 14.3505 5.6317 14.1161 5.86612C13.8817 6.10054 13.75 6.41848 13.75 6.75V14.25H6.25C5.91848 14.25 5.60054 14.3817 5.36612 14.6161C5.1317 14.8505 5 15.1685 5 15.5C5 15.8315 5.1317 16.1495 5.36612 16.3839C5.60054 16.6183 5.91848 16.75 6.25 16.75H13.75V24.25C13.75 24.5815 13.8817 24.8995 14.1161 25.1339C14.3505 25.3683 14.6685 25.5 15 25.5C15.3315 25.5 15.6495 25.3683 15.8839 25.1339C16.1183 24.8995 16.25 24.5815 16.25 24.25V16.75H23.75C24.0815 16.75 24.3995 16.6183 24.6339 16.3839C24.8683 16.1495 25 15.8315 25 15.5C25 15.1685 24.8683 14.8505 24.6339 14.6161C24.3995 14.3817 24.0815 14.25 23.75 14.25Z" fill="currentColor"/>
    </symbol>
    <symbol id="minus-30">
        <path d="M23.75 13.75H6.25C5.91848 13.75 5.60054 13.8817 5.36612 14.1161C5.1317 14.3505 5 14.6685 5 15C5 15.3315 5.1317 15.6495 5.36612 15.8839C5.60054 16.1183 5.91848 16.25 6.25 16.25H23.75C24.0815 16.25 24.3995 16.1183 24.6339 15.8839C24.8683 15.6495 25 15.3315 25 15C25 14.6685 24.8683 14.3505 24.6339 14.1161C24.3995 13.8817 24.0815 13.75 23.75 13.75Z" fill="currentColor"/>
    </symbol>

    <symbol id="plus-24">
        <path d="M19 11H13V5C13 4.73478 12.8946 4.48043 12.7071 4.29289C12.5196 4.10536 12.2652 4 12 4C11.7348 4 11.4804 4.10536 11.2929 4.29289C11.1054 4.48043 11 4.73478 11 5V11H5C4.73478 11 4.48043 11.1054 4.29289 11.2929C4.10536 11.4804 4 11.7348 4 12C4 12.2652 4.10536 12.5196 4.29289 12.7071C4.48043 12.8946 4.73478 13 5 13H11V19C11 19.2652 11.1054 19.5196 11.2929 19.7071C11.4804 19.8946 11.7348 20 12 20C12.2652 20 12.5196 19.8946 12.7071 19.7071C12.8946 19.5196 13 19.2652 13 19V13H19C19.2652 13 19.5196 12.8946 19.7071 12.7071C19.8946 12.5196 20 12.2652 20 12C20 11.7348 19.8946 11.4804 19.7071 11.2929C19.5196 11.1054 19.2652 11 19 11Z" fill="currentColor"/>
    </symbol>
    <symbol id="minus-24">
        <path d="M19 11H5C4.73478 11 4.48043 11.1054 4.29289 11.2929C4.10536 11.4804 4 11.7348 4 12C4 12.2652 4.10536 12.5196 4.29289 12.7071C4.48043 12.8946 4.73478 13 5 13H19C19.2652 13 19.5196 12.8946 19.7071 12.7071C19.8946 12.5196 20 12.2652 20 12C20 11.7348 19.8946 11.4804 19.7071 11.2929C19.5196 11.1054 19.2652 11 19 11Z" fill="currentColor"/>
    </symbol>

    <symbol id="fb-20">
        <g clip-path="url(#clip0_1071_5393)">
        <path d="M20 10C20 4.47715 15.5229 0 10 0C4.47715 0 0 4.47715 0 10C0 14.9912 3.65684 19.1283 8.4375 19.8785V12.8906H5.89844V10H8.4375V7.79688C8.4375 5.29063 9.93047 3.90625 12.2146 3.90625C13.3084 3.90625 14.4531 4.10156 14.4531 4.10156V6.5625H13.1922C11.95 6.5625 11.5625 7.3334 11.5625 8.125V10H14.3359L13.8926 12.8906H11.5625V19.8785C16.3432 19.1283 20 14.9912 20 10Z" fill="currentColor"/>
        </g>
        <defs>
        <clipPath id="clip0_1071_5393">
        <rect width="20" height="20" fill="currentColor"/>
        </clipPath>
        </defs>
    </symbol>
    <symbol id="fb-24">
        <g clip-path="url(#clip0_1071_310)">
        <path d="M24 12C24 5.37258 18.6274 0 12 0C5.37258 0 0 5.37258 0 12C0 17.9895 4.3882 22.954 10.125 23.8542V15.4687H7.07812V12H10.125V9.35625C10.125 6.34875 11.9166 4.6875 14.6576 4.6875C15.9701 4.6875 17.3438 4.92187 17.3438 4.92187V7.875H15.8306C14.34 7.875 13.875 8.80008 13.875 9.75V12H17.2031L16.6711 15.4687H13.875V23.8542C19.6118 22.954 24 17.9895 24 12Z" fill="currentColor"/>
        </g>
        <defs>
        <clipPath id="clip0_1071_310">
        <rect width="24" height="24" fill="currentColor"/>
        </clipPath>
        </defs>
    </symbol>
    <symbol id="tw-24">
        <g clip-path="url(#clip0_1071_313)">
        <path d="M7.55016 21.75C16.6045 21.75 21.5583 14.2467 21.5583 7.74186C21.5583 7.53092 21.5536 7.3153 21.5442 7.10436C22.5079 6.40746 23.3395 5.54425 24 4.5553C23.1025 4.9546 22.1496 5.21538 21.1739 5.32874C22.2013 4.71291 22.9705 3.74547 23.3391 2.60577C22.3726 3.17856 21.3156 3.58261 20.2134 3.80061C19.4708 3.01156 18.489 2.48912 17.4197 2.31405C16.3504 2.13899 15.2532 2.32105 14.2977 2.8321C13.3423 3.34314 12.5818 4.15471 12.1338 5.14131C11.6859 6.12792 11.5754 7.23462 11.8195 8.2903C9.86249 8.19209 7.94794 7.6837 6.19998 6.7981C4.45203 5.91249 2.90969 4.66944 1.67297 3.14952C1.0444 4.23324 0.852057 5.51565 1.13503 6.73609C1.418 7.95654 2.15506 9.02345 3.19641 9.71999C2.41463 9.69517 1.64998 9.48468 0.965625 9.10592V9.16686C0.964925 10.3041 1.3581 11.4066 2.07831 12.2868C2.79852 13.167 3.80132 13.7706 4.91625 13.995C4.19206 14.1931 3.43198 14.222 2.69484 14.0794C3.00945 15.0574 3.62157 15.9129 4.44577 16.5263C5.26997 17.1398 6.26512 17.4806 7.29234 17.5012C5.54842 18.8711 3.39417 19.6141 1.17656 19.6106C0.783287 19.61 0.390399 19.5859 0 19.5384C2.25286 20.9837 4.87353 21.7514 7.55016 21.75Z" fill="currentColor"/>
        </g>
        <defs>
        <clipPath id="clip0_1071_313">
        <rect width="24" height="24" fill="currentColor"/>
        </clipPath>
        </defs>
    </symbol>
    <symbol id="tw-20">
        <g clip-path="url(#clip0_1071_5396)">
        <path d="M6.2918 18.1251C13.8371 18.1251 17.9652 11.8724 17.9652 6.45167C17.9652 6.27589 17.9613 6.0962 17.9535 5.92042C18.7566 5.33967 19.4496 4.62033 20 3.7962C19.2521 4.12896 18.458 4.34627 17.6449 4.44074C18.5011 3.92755 19.1421 3.12135 19.4492 2.17159C18.6438 2.64892 17.763 2.98563 16.8445 3.1673C16.2257 2.50976 15.4075 2.07439 14.5164 1.9285C13.6253 1.78261 12.711 1.93433 11.9148 2.3602C11.1186 2.78607 10.4848 3.46238 10.1115 4.28455C9.73825 5.10672 9.64619 6.02897 9.84961 6.9087C8.21874 6.82686 6.62328 6.40321 5.16665 5.6652C3.71002 4.9272 2.42474 3.89132 1.39414 2.62472C0.870333 3.52782 0.710047 4.59649 0.945859 5.61353C1.18167 6.63057 1.79589 7.51966 2.66367 8.10011C2.01219 8.07943 1.37498 7.90402 0.804688 7.58839V7.63917C0.804104 8.58691 1.13175 9.50561 1.73192 10.2391C2.3321 10.9726 3.16777 11.4756 4.09687 11.6626C3.49338 11.8277 2.85999 11.8518 2.2457 11.7329C2.50788 12.548 3.01798 13.2609 3.70481 13.7721C4.39164 14.2833 5.22093 14.5673 6.07695 14.5845C4.62369 15.726 2.82848 16.3452 0.980469 16.3423C0.652739 16.3418 0.325333 16.3217 0 16.2821C1.87738 17.4866 4.06128 18.1263 6.2918 18.1251Z" fill="currentColor"/>
        </g>
        <defs>
        <clipPath id="clip0_1071_5396">
        <rect width="20" height="20" fill="currentColor"/>
        </clipPath>
        </defs>
    </symbol>
    <symbol id="in-24">
        <g clip-path="url(#clip0_1071_316)">
        <path d="M22.2234 0H1.77187C0.792187 0 0 0.773438 0 1.72969V22.2656C0 23.2219 0.792187 24 1.77187 24H22.2234C23.2031 24 24 23.2219 24 22.2703V1.72969C24 0.773438 23.2031 0 22.2234 0ZM7.12031 20.4516H3.55781V8.99531H7.12031V20.4516ZM5.33906 7.43438C4.19531 7.43438 3.27188 6.51094 3.27188 5.37187C3.27188 4.23281 4.19531 3.30937 5.33906 3.30937C6.47813 3.30937 7.40156 4.23281 7.40156 5.37187C7.40156 6.50625 6.47813 7.43438 5.33906 7.43438ZM20.4516 20.4516H16.8937V14.8828C16.8937 13.5562 16.8703 11.8453 15.0422 11.8453C13.1906 11.8453 12.9094 13.2937 12.9094 14.7891V20.4516H9.35625V8.99531H12.7687V10.5609H12.8156C13.2891 9.66094 14.4516 8.70938 16.1813 8.70938C19.7859 8.70938 20.4516 11.0813 20.4516 14.1656V20.4516Z" fill="currentColor"/>
        </g>
        <defs>
        <clipPath id="clip0_1071_316">
        <rect width="24" height="24" fill="currentColor"/>
        </clipPath>
        </defs>
    </symbol>
    <symbol id="in-20">
        <g clip-path="url(#clip0_1071_5399)">
        <path d="M18.5195 0H1.47656C0.660156 0 0 0.644531 0 1.44141V18.5547C0 19.3516 0.660156 20 1.47656 20H18.5195C19.3359 20 20 19.3516 20 18.5586V1.44141C20 0.644531 19.3359 0 18.5195 0ZM5.93359 17.043H2.96484V7.49609H5.93359V17.043ZM4.44922 6.19531C3.49609 6.19531 2.72656 5.42578 2.72656 4.47656C2.72656 3.52734 3.49609 2.75781 4.44922 2.75781C5.39844 2.75781 6.16797 3.52734 6.16797 4.47656C6.16797 5.42188 5.39844 6.19531 4.44922 6.19531ZM17.043 17.043H14.0781V12.4023C14.0781 11.2969 14.0586 9.87109 12.5352 9.87109C10.9922 9.87109 10.7578 11.0781 10.7578 12.3242V17.043H7.79688V7.49609H10.6406V8.80078H10.6797C11.0742 8.05078 12.043 7.25781 13.4844 7.25781C16.4883 7.25781 17.043 9.23438 17.043 11.8047V17.043Z" fill="currentColor"/>
        </g>
        <defs>
        <clipPath id="clip0_1071_5399">
        <rect width="20" height="20" fill="currentColor"/>
        </clipPath>
        </defs>
    </symbol>
    <symbol id="clock-20">
        <path fill-rule="evenodd" clip-rule="evenodd" d="M10 1.875C5.51269 1.875 1.875 5.51269 1.875 10C1.875 14.4873 5.51269 18.125 10 18.125C14.4873 18.125 18.125 14.4873 18.125 10C18.125 5.51269 14.4873 1.875 10 1.875ZM10.625 5C10.625 4.65482 10.3452 4.375 10 4.375C9.65482 4.375 9.375 4.65482 9.375 5V10C9.375 10.3452 9.65482 10.625 10 10.625H13.75C14.0952 10.625 14.375 10.3452 14.375 10C14.375 9.65482 14.0952 9.375 13.75 9.375H10.625V5Z" fill="currentColor"/>
    </symbol>
    <symbol id="clock-24">
        <path fill-rule="evenodd" clip-rule="evenodd" d="M12.7998 2.25C7.41503 2.25 3.0498 6.61522 3.0498 12C3.0498 17.3848 7.41503 21.75 12.7998 21.75C18.1846 21.75 22.5498 17.3848 22.5498 12C22.5498 6.61522 18.1846 2.25 12.7998 2.25ZM13.5498 6C13.5498 5.58579 13.214 5.25 12.7998 5.25C12.3856 5.25 12.0498 5.58579 12.0498 6V12C12.0498 12.4142 12.3856 12.75 12.7998 12.75H17.2998C17.714 12.75 18.0498 12.4142 18.0498 12C18.0498 11.5858 17.714 11.25 17.2998 11.25H13.5498V6Z" fill="currentColor"/>
    </symbol>
    <symbol id="eye-20">
        <path d="M10.5991 12.5C11.9798 12.5 13.0991 11.3807 13.0991 10C13.0991 8.61929 11.9798 7.5 10.5991 7.5C9.21841 7.5 8.09912 8.61929 8.09912 10C8.09912 11.3807 9.21841 12.5 10.5991 12.5Z" fill="currentColor"/>
        <path fill-rule="evenodd" clip-rule="evenodd" d="M1.70196 9.53891C2.94134 5.81309 6.45571 3.125 10.5996 3.125C14.7415 3.125 18.2545 5.8106 19.4954 9.53371C19.5957 9.8346 19.5958 10.1601 19.4957 10.4611C18.2563 14.1869 14.7419 16.875 10.5981 16.875C6.45618 16.875 2.94315 14.1894 1.70224 10.4663C1.60195 10.1654 1.60186 9.83986 1.70196 9.53891ZM14.9741 10C14.9741 12.4162 13.0154 14.375 10.5991 14.375C8.18288 14.375 6.22412 12.4162 6.22412 10C6.22412 7.58375 8.18288 5.625 10.5991 5.625C13.0154 5.625 14.9741 7.58375 14.9741 10Z" fill="currentColor"/>
    </symbol>
    <symbol id="eye-24">
        <path d="M12.3994 15C14.0563 15 15.3994 13.6569 15.3994 12C15.3994 10.3431 14.0563 9 12.3994 9C10.7426 9 9.39941 10.3431 9.39941 12C9.39941 13.6569 10.7426 15 12.3994 15Z" fill="currentColor"/>
        <path fill-rule="evenodd" clip-rule="evenodd" d="M1.72283 11.4467C3.21008 6.97571 7.42733 3.75 12.3999 3.75C17.3702 3.75 21.5859 6.97271 23.075 11.4405C23.1953 11.8015 23.1954 12.1922 23.0753 12.5533C21.588 17.0243 17.3708 20.25 12.3982 20.25C7.42789 20.25 3.21225 17.0273 1.72315 12.5595C1.60281 12.1985 1.6027 11.8078 1.72283 11.4467ZM17.6494 12C17.6494 14.8995 15.2989 17.25 12.3994 17.25C9.49992 17.25 7.14941 14.8995 7.14941 12C7.14941 9.1005 9.49992 6.75 12.3994 6.75C15.2989 6.75 17.6494 9.1005 17.6494 12Z" fill="currentColor"/>
    </symbol>
    <symbol id="season-20">
        <path d="M5.38867 3.88103C5.70292 3.7956 6.03358 3.75 6.37488 3.75H15.1249C15.4662 3.75 15.7968 3.7956 16.1111 3.88103C15.7005 3.06211 14.8533 2.5 13.8749 2.5H7.62488C6.64642 2.5 5.79925 3.06211 5.38867 3.88103Z" fill="currentColor"/>
        <path d="M2.625 10C2.625 8.61929 3.74429 7.5 5.125 7.5H16.375C17.7557 7.5 18.875 8.61929 18.875 10V15C18.875 16.3807 17.7557 17.5 16.375 17.5H5.125C3.74429 17.5 2.625 16.3807 2.625 15V10Z" fill="currentColor"/>
        <path d="M5.12488 6.25C4.78358 6.25 4.45292 6.2956 4.13867 6.38103C4.54925 5.56211 5.39642 5 6.37488 5H15.1249C16.1033 5 16.9505 5.56211 17.3611 6.38103C17.0468 6.2956 16.7162 6.25 16.3749 6.25H5.12488Z" fill="currentColor"/>
    </symbol>
    <symbol id="season-24">
        <path d="M5.81641 4.65724C6.1935 4.55472 6.59029 4.5 6.99986 4.5H17.4999C17.9094 4.5 18.3062 4.55472 18.6833 4.65724C18.1906 3.67454 17.174 3 15.9999 3H8.49986C7.3257 3 6.3091 3.67454 5.81641 4.65724Z" fill="currentColor"/>
        <path d="M2.5 12C2.5 10.3431 3.84315 9 5.5 9H19C20.6569 9 22 10.3431 22 12V18C22 19.6569 20.6569 21 19 21H5.5C3.84315 21 2.5 19.6569 2.5 18V12Z" fill="currentColor"/>
        <path d="M5.49986 7.5C5.09029 7.5 4.6935 7.55472 4.31641 7.65724C4.8091 6.67454 5.8257 6 6.99986 6H17.4999C18.674 6 19.6906 6.67454 20.1833 7.65724C19.8062 7.55472 19.4094 7.5 18.9999 7.5H5.49986Z" fill="currentColor"/>
    </symbol>

    <symbol id="stars-18">
        <path d="M9.38086 0L12.4967 4.7114L17.9404 6.21885L14.4224 10.6381L14.6709 16.2812L9.38086 14.301L4.09079 16.2812L4.33931 10.6381L0.821351 6.21885L6.26501 4.7114L9.38086 0Z" fill="#e50000"/>
        <path d="M29.3809 0L32.4967 4.7114L37.9404 6.21885L34.4224 10.6381L34.6709 16.2812L29.3809 14.301L24.0908 16.2812L24.3393 10.6381L20.8214 6.21885L26.265 4.7114L29.3809 0Z" fill="#e50000"/>
        <path d="M49.3809 0L52.4967 4.7114L57.9404 6.21885L54.4224 10.6381L54.6709 16.2812L49.3809 14.301L44.0908 16.2812L44.3393 10.6381L40.8214 6.21885L46.265 4.7114L49.3809 0Z" fill="#e50000"/>
        <path d="M69.3809 0L72.4967 4.7114L77.9404 6.21885L74.4224 10.6381L74.6709 16.2812L69.3809 14.301L64.0908 16.2812L64.3393 10.6381L60.8214 6.21885L66.265 4.7114L69.3809 0Z" fill="#e50000"/>
        <path d="M89 0L92.1158 4.7114L97.5595 6.21885L94.0416 10.6381L94.2901 16.2812L89 14.301L83.7099 16.2812L83.9584 10.6381L80.4405 6.21885L85.8842 4.7114L89 0Z" fill="currentColor"/>
    </symbol>
    <symbol id="stars-14">
        <path d="M7 0L9.42344 3.66442L13.6574 4.83688L10.9212 8.27408L11.1145 12.6631L7 11.123L2.8855 12.6631L3.07879 8.27408L0.342604 4.83688L4.57656 3.66442L7 0Z" fill="#e50000"/>
        <path d="M22 0L24.4234 3.66442L28.6574 4.83688L25.9212 8.27408L26.1145 12.6631L22 11.123L17.8855 12.6631L18.0788 8.27408L15.3426 4.83688L19.5766 3.66442L22 0Z" fill="#e50000"/>
        <path d="M37 0L39.4234 3.66442L43.6574 4.83688L40.9212 8.27408L41.1145 12.6631L37 11.123L32.8855 12.6631L33.0788 8.27408L30.3426 4.83688L34.5766 3.66442L37 0Z" fill="#e50000"/>
        <path d="M52 0L54.4234 3.66442L58.6574 4.83688L55.9212 8.27408L56.1145 12.6631L52 11.123L47.8855 12.6631L48.0788 8.27408L45.3426 4.83688L49.5766 3.66442L52 0Z" fill="#e50000"/>
        <path d="M67 0L69.4234 3.66442L73.6574 4.83688L70.9212 8.27408L71.1145 12.6631L67 11.123L62.8855 12.6631L63.0788 8.27408L60.3426 4.83688L64.5766 3.66442L67 0Z" fill="currentColor"/>
    </symbol>
</svg>
